<svg width="1512" height="205" viewBox="0 0 1512 205" fill="none" xmlns="http://www.w3.org/2000/svg">
<path fill-rule="evenodd" clip-rule="evenodd" d="M0 205V0.00169221H5.08619C5.98835 0.209211 6.97286 0.479717 7.95734 0.617503C21.7384 2.6154 32.8952 9.11065 40.6879 20.9224C42.3284 23.4362 44.0479 24.0797 46.8401 23.9394C76.9457 22.4473 99.5862 47.9956 94.5823 77.7607C94.4389 78.8605 94.3827 79.9699 94.4143 81.0785C102.618 80.1266 110.082 81.7406 114.922 88.0686C118.534 92.9676 121.894 94.3085 127.801 92.9012C134.199 91.3889 140.516 93.4263 146.258 96.2896C164.879 76.1485 196.954 71.0092 222.219 91.8838C227.633 85.701 234.524 83.2663 242.563 85.5145C250.848 87.8241 254.786 94.1161 256.344 102.112C262.169 100.363 267.665 99.7082 272.915 101.932C277.837 104.085 282.431 107.174 287.353 109.881C290.51 105.191 294.579 101.185 299.317 98.1019C304.056 95.0191 309.366 92.9226 314.933 91.9377C320.499 90.9528 326.206 91.0995 331.715 92.3691C337.223 93.6388 342.419 96.0054 346.993 99.3276C348.716 100.632 352.325 99.9014 354.95 99.4208C355.853 99.2578 356.591 97.0079 356.919 95.6015C366.927 62.4094 409.419 49.5457 436.162 71.6419C442.467 77.013 447.557 83.666 451.091 91.1579C451.583 90.1783 451.912 89.5708 452.239 88.9474C460.524 72.5576 473.731 63.3226 492.024 62.2943C506.543 61.4852 518.684 66.8857 528.528 77.628C530.086 79.41 531.481 79.8527 533.86 79.3167C537.272 78.4947 540.767 78.0738 544.276 78.0623C555.872 78.1026 567.023 82.5331 575.485 90.4628C583.947 98.3924 589.093 109.233 589.888 120.804C589.981 122.224 590.145 123.638 590.381 125.041C597.189 122.051 603.423 121.94 609.576 125.409C612.611 127.149 614.826 126.922 617.041 123.937C618.538 122.018 620.306 120.327 622.291 118.918C631.068 111.995 639.599 111.609 648.87 117.736C651.166 119.257 653.299 121.145 655.35 122.769C675.694 108.402 696.694 107.292 718.182 119.783C722.776 112.761 728.928 109.043 737.378 110.111C745.745 111.179 750.503 116.689 753.292 124.028C753.674 124.064 754.059 124.06 754.44 124.018C754.932 123.85 755.588 123.638 756.163 123.417C760 121.818 764.159 121.142 768.305 121.444C772.452 121.746 776.469 123.017 780.034 125.156C784.3 127.598 785.366 127.285 787.909 123.172C795.62 110.901 806.776 104.513 821.05 103.41C828.269 102.852 834.994 104.934 841.64 107.477C844.101 108.421 847.546 107.634 850.335 106.823C851.237 106.54 851.484 103.79 852.058 102.182C854.191 96.3786 855.586 90.1799 858.539 84.8508C872.074 60.4711 905.706 52.7955 928.839 68.3636C935.999 73.0855 941.864 79.5231 945.902 87.0907C955.746 83.8409 964.852 85.0659 973.137 91.015C973.998 91.3665 974.954 91.4098 975.844 91.1377C982.732 89.6666 988.394 92.5853 991.102 99.1192C991.541 100.06 992.256 100.845 993.152 101.369C1001.77 104.658 1009.16 110.53 1014.32 118.182C1015.8 115.876 1017.36 114.276 1018.01 112.374C1020.14 106.286 1024.9 102.886 1031.3 103.107C1032.37 103.144 1033.84 103.031 1034.58 102.35C1041.06 95.8669 1048.94 93.3608 1057.96 94.3152C1060.09 94.5412 1061.08 93.7724 1061.73 91.956C1064.56 85.0702 1068.84 78.8788 1074.28 73.8086C1091.35 57.4457 1120.8 56.3174 1139.17 71.3503C1148.19 78.7992 1154.1 88.1619 1157.38 100.223C1160.58 99.7476 1164.44 100.295 1166.82 98.658C1183.47 87.4116 1206.35 89.2768 1220.22 103.746C1223.58 107.275 1226.21 111.517 1229.32 115.559C1236.79 107.525 1246.3 105.509 1257.21 107.588C1256.14 98.1505 1258.77 90.6168 1267.47 86.6059C1276.41 82.4681 1284.2 84.9852 1290.76 91.9207C1300.28 84.8517 1307.17 81.3045 1314.22 79.8905C1333.5 75.9779 1350.4 80.5475 1364.59 94.3765C1365.41 95.1814 1367.38 95.7754 1368.36 95.3721C1376.22 91.9656 1385.06 91.6547 1393.14 94.5017C1398.55 84.3753 1407.08 79.872 1418.57 80.9701C1418.4 79.2218 1418.16 77.9111 1417.91 76.6013C1416.43 65.565 1418.24 55.0765 1424.23 45.6962C1433.91 30.4691 1448.02 23.1488 1466.14 23.9361C1468.77 24.0537 1470.49 23.563 1472.05 21.0686C1476.89 13.5425 1483.29 7.5236 1491.9 4.40241C1496.99 2.53559 1502.32 1.44171 1507.57 0H1512V204.998L0 205Z" fill="white"/>
</svg>
